<?xml version="1.0" encoding="UTF-8"?>
<svg id="Layer_1" data-name="Layer 1" xmlns="http://www.w3.org/2000/svg" viewBox="0 0 1685.08 530.72">
  <defs>
    <style>
      .cls-1 {
        fill: none;
      }

      .cls-2 {
        fill: #f66631;
      }

      .cls-3 {
        fill: #feae57;
      }

      .cls-4 {
        fill: #c24f18;
      }

      .cls-5 {
        fill: #41465a;
      }
    </style>
  </defs>
  <g>
    <rect class="cls-3" x="55.82" y="70.52" width="395.62" height="389.67"/>
    <ellipse class="cls-5" cx="253.63" cy="265.36" rx="197.81" ry="194.84"/>
    <g>
      <rect class="cls-3" x="56.38" y="245.63" width="395.06" height="11.69" transform="translate(507.82 502.95) rotate(-180)"/>
      <rect class="cls-3" x="56.06" y="346.56" width="395.06" height="11.69" transform="translate(507.17 704.81) rotate(-180)"/>
      <rect class="cls-3" x="55.82" y="380.53" width="395.06" height="11.69" transform="translate(506.7 772.76) rotate(-180)"/>
      <rect class="cls-3" x="56.2" y="278.03" width="395.06" height="11.69" transform="translate(507.45 567.75) rotate(-180)"/>
      <rect class="cls-3" x="55.96" y="312.01" width="395.06" height="11.69" transform="translate(506.98 635.7) rotate(-180)"/>
      <rect class="cls-3" x="56.36" y="145.73" width="395.06" height="11.69" transform="translate(507.78 303.15) rotate(-180)"/>
      <rect class="cls-3" x="56.17" y="178.13" width="395.06" height="11.69" transform="translate(507.4 367.96) rotate(-180)"/>
      <rect class="cls-3" x="55.94" y="212.11" width="395.06" height="11.69" transform="translate(506.94 435.91) rotate(-180)"/>
    </g>
    <ellipse class="cls-2" cx="253.63" cy="265.36" rx="95.17" ry="93.74"/>
    <ellipse class="cls-3" cx="253.91" cy="266.23" rx="40.92" ry="40.31"/>
  </g>
  <g>
    <g>
      <polygon class="cls-3" points="1543.25 460.52 1457.24 460.52 1500.24 376.11 1543.25 291.7 1586.25 376.11 1629.26 460.52 1543.25 460.52"/>
      <polygon class="cls-3" points="1087.85 460.93 1001.84 460.93 1044.84 376.31 1087.85 291.7 1130.85 376.31 1173.86 460.93 1087.85 460.93"/>
      <polygon class="cls-2" points="990.57 291.33 990.57 347 943.58 347 943.58 291.51 943.58 291.33 990.57 291.33"/>
      <rect class="cls-2" x="847.18" y="347" width="96.4" height="113.54"/>
      <polygon class="cls-2" points="847.18 291.51 847.18 347 826.44 347 826.44 291.86 826.44 291.33 943.58 291.33 943.58 291.51 847.18 291.51"/>
      <rect class="cls-2" x="730.07" y="347" width="96.38" height="113.87"/>
      <polygon class="cls-2" points="730.07 291.86 730.07 347 683.07 347 683.07 291.33 826.44 291.33 826.44 291.86 730.07 291.86"/>
      <circle class="cls-5" cx="582.16" cy="376.26" r="86.7"/>
      <path class="cls-4" d="m1442.53,291.51v84.51c0,23.32-9.43,44.46-24.71,59.76-15.25,15.3-36.35,24.75-59.63,24.75-16.27,0-31.48-4.63-44.37-12.64,5.56-3.44,10.69-7.53,15.29-12.14,15.27-15.28,24.71-36.42,24.71-59.74v23.68h8.74v-108.19h79.97Z"/>
      <path class="cls-5" d="m1353.82,291.51v84.51c0,23.32-9.43,44.46-24.71,59.74-4.61,4.61-9.73,8.7-15.29,12.14-23.99-14.9-39.96-41.52-39.96-71.88v-84.51h79.97Z"/>
      <path class="cls-4" d="m1273.86,376.03c0,30.36,15.97,56.98,39.96,71.88-12.89,8.01-28.07,12.62-44.33,12.62-46.6,0-84.36-37.83-84.36-84.49v-84.51h79.99v108.19h8.74v-23.68Z"/>
      <circle class="cls-2" cx="582.16" cy="376.26" r="41.71"/>
      <rect class="cls-5" x="1040.9" y="424.42" width="93.9" height="36.51"/>
      <rect class="cls-5" x="1496.3" y="424.42" width="93.9" height="36.1"/>
      <rect class="cls-5" x="730.07" y="291.33" width="96.38" height="55.68"/>
      <rect class="cls-5" x="847.18" y="291.51" width="96.4" height="55.5"/>
      <g>
        <rect class="cls-3" x="726.5" y="402.42" width="113.56" height="3.35" transform="translate(379.18 1187.37) rotate(-90)"/>
        <rect class="cls-3" x="697.55" y="402.33" width="113.56" height="3.35" transform="translate(350.32 1158.33) rotate(-90)"/>
        <rect class="cls-3" x="687.8" y="402.26" width="113.56" height="3.35" transform="translate(340.64 1148.52) rotate(-90)"/>
        <rect class="cls-3" x="717.2" y="402.37" width="113.56" height="3.35" transform="translate(369.94 1178.03) rotate(-90)"/>
        <rect class="cls-3" x="707.46" y="402.3" width="113.56" height="3.35" transform="translate(360.26 1168.21) rotate(-90)"/>
        <rect class="cls-3" x="755.15" y="402.41" width="113.56" height="3.35" transform="translate(407.84 1216.02) rotate(-90)"/>
        <rect class="cls-3" x="745.86" y="402.36" width="113.56" height="3.35" transform="translate(398.6 1206.67) rotate(-90)"/>
        <rect class="cls-3" x="736.11" y="402.29" width="113.56" height="3.35" transform="translate(388.92 1196.86) rotate(-90)"/>
      </g>
      <g>
        <rect class="cls-3" x="843.62" y="402.18" width="113.56" height="3.35" transform="translate(496.55 1304.25) rotate(-90)"/>
        <rect class="cls-3" x="814.67" y="402.08" width="113.56" height="3.35" transform="translate(467.69 1275.21) rotate(-90)"/>
        <rect class="cls-3" x="804.92" y="402.01" width="113.56" height="3.35" transform="translate(458.01 1265.39) rotate(-90)"/>
        <rect class="cls-3" x="834.32" y="402.12" width="113.56" height="3.35" transform="translate(487.31 1294.9) rotate(-90)"/>
        <rect class="cls-3" x="824.58" y="402.06" width="113.56" height="3.35" transform="translate(477.63 1285.09) rotate(-90)"/>
        <rect class="cls-3" x="872.27" y="402.17" width="113.56" height="3.35" transform="translate(525.21 1332.9) rotate(-90)"/>
        <rect class="cls-3" x="862.98" y="402.12" width="113.56" height="3.35" transform="translate(515.97 1323.55) rotate(-90)"/>
        <rect class="cls-3" x="853.23" y="402.05" width="113.56" height="3.35" transform="translate(506.29 1313.74) rotate(-90)"/>
      </g>
    </g>
    <g>
      <path class="cls-1" d="m1018.87,126.17v56.27c0-1.89-.1-3.75-.28-5.58-.12-1.19-.26-2.36-.48-3.52-.1-.75-.24-1.51-.4-2.24-.16-.81-.34-1.63-.54-2.42-.22-.83-.44-1.67-.7-2.5-.2-.7-.42-1.37-.68-2.05-.06-.22-.14-.46-.24-.68-.18-.58-.4-1.13-.64-1.69-.1-.28-.2-.56-.32-.81-.16-.4-.32-.79-.52-1.17-.22-.56-.46-1.07-.72-1.61-.36-.73-.72-1.45-1.09-2.15-.18-.38-.38-.75-.62-1.11-.26-.5-.56-.99-.85-1.49-.38-.64-.77-1.27-1.19-1.89-.4-.64-.83-1.27-1.31-1.91-.38-.56-.77-1.09-1.21-1.63-.24-.32-.48-.64-.73-.93-.3-.4-.62-.77-.95-1.15-.2-.24-.4-.48-.62-.7-.36-.42-.73-.83-1.13-1.25-.28-.32-.56-.6-.83-.87-.3-.34-.62-.66-.95-.95-.24-.26-.5-.5-.73-.72-.52-.48-1.03-.95-1.57-1.43-.06-.04-.1-.08-.16-.12-.48-.44-.97-.85-1.47-1.23-.34-.3-.7-.58-1.05-.83-.44-.34-.87-.68-1.31-.97-.64-.48-1.29-.93-1.95-1.35-.38-.28-.75-.52-1.15-.73-.38-.28-.77-.52-1.17-.73-.3-.2-.58-.36-.87-.5-.56-.36-1.13-.66-1.71-.95-.68-.36-1.35-.72-2.05-1.03-.38-.18-.75-.36-1.15-.52-.54-.26-1.07-.5-1.63-.72-.83-.34-1.67-.68-2.5-.95-.72-.26-1.43-.5-2.15-.72-.56-.18-1.13-.36-1.71-.5-.4-.14-.81-.24-1.23-.34-.81-.2-1.63-.4-2.44-.56-.56-.12-1.11-.22-1.69-.3-2.2-.4-4.47-.66-6.77-.77h53.45Z"/>
      <path class="cls-3" d="m1018.87,69.76v56.41h-53.45c-.95-.06-1.93-.08-2.9-.08h-110.68c0-31.11,25.23-56.33,56.35-56.33h110.68Z"/>
      <path class="cls-2" d="m1018.87,182.45h-110.68c-15.55,0-29.66-6.32-39.85-16.51-10.17-10.17-16.49-24.25-16.51-39.77v-.08h110.68c.97,0,1.95.02,2.9.08,2.3.12,4.57.38,6.77.77.58.08,1.13.18,1.69.3.81.16,1.63.36,2.44.56.42.1.83.22,1.23.34.58.14,1.15.32,1.71.5.72.22,1.43.46,2.15.72.83.3,1.67.62,2.5.95.54.22,1.09.46,1.63.72.4.16.77.34,1.15.52.7.32,1.37.68,2.05,1.03.58.3,1.15.62,1.71.95.3.14.58.3.87.5.4.22.77.46,1.17.73.38.22.77.46,1.15.73.66.42,1.31.87,1.95,1.35.46.3.89.64,1.31.97.36.26.72.54,1.05.83.5.4.99.79,1.47,1.23.06.04.1.08.16.12.54.48,1.05.95,1.57,1.43.24.22.5.46.73.72.32.3.64.62.95.95.3.28.58.58.83.87.4.4.77.83,1.13,1.25.22.22.42.46.62.7.34.38.64.75.95,1.15.26.3.5.62.73.93.42.54.81,1.07,1.21,1.63.46.62.89,1.25,1.31,1.91.42.62.81,1.25,1.19,1.89.3.5.6.99.85,1.49.22.36.42.73.62,1.11.38.7.73,1.41,1.09,2.15.26.54.5,1.05.72,1.61.2.38.36.77.52,1.17.12.26.22.54.32.81.24.56.46,1.11.64,1.69.1.22.18.46.24.68.26.68.48,1.37.68,2.05.26.83.48,1.67.7,2.5.2.79.38,1.61.54,2.42.16.75.3,1.49.4,2.24.22,1.15.36,2.32.48,3.52.18,1.83.28,3.69.28,5.58Z"/>
      <path class="cls-1" d="m908.19,182.45h-56.35v-56.27c.02,15.51,6.34,29.6,16.51,39.77,10.19,10.19,24.29,16.51,39.85,16.51Z"/>
      <path class="cls-3" d="m1018.87,182.45c0,15.55-6.3,29.64-16.51,39.83-10.19,10.19-24.27,16.51-39.85,16.51h-110.68v-56.33h167.03Z"/>
      <rect class="cls-5" x="686.31" y="69.77" width="85.84" height="169.02"/>
      <rect class="cls-4" x="774.26" y="67.66" width="55.68" height="59.89" transform="translate(899.71 -704.5) rotate(90)"/>
      <rect class="cls-4" x="775.63" y="124.51" width="52.94" height="59.89" transform="translate(956.56 -647.65) rotate(90)"/>
      <rect class="cls-4" x="774.65" y="181.39" width="54.91" height="59.89" transform="translate(1013.43 -590.77) rotate(90)"/>
      <rect class="cls-2" x="1163.77" y="69.77" width="43.26" height="55.68"/>
      <rect class="cls-2" x="1078.6" y="125.44" width="85.17" height="113.34"/>
      <rect class="cls-5" x="1078.6" y="69.77" width="85.17" height="55.68"/>
      <rect class="cls-2" x="1035.34" y="69.77" width="43.26" height="55.68"/>
      <g>
        <path class="cls-2" d="m1626.69,153.11c0-47.14-37.76-85.35-84.35-85.35h0c-46.58,0-84.35,38.21-84.35,85.35v85.35h79.97v-109.27h8.74v109.27h79.97v-85.35Z"/>
        <rect class="cls-2" x="1537.98" y="238.45" width="8.74" height="0"/>
      </g>
      <g>
        <rect class="cls-3" x="639.62" y="152.66" width="169.18" height="3.35" transform="translate(878.55 -569.88) rotate(90)"/>
        <rect class="cls-3" x="668.57" y="152.8" width="169.18" height="3.35" transform="translate(907.64 -598.69) rotate(90)"/>
        <rect class="cls-3" x="678.32" y="152.9" width="169.18" height="3.35" transform="translate(917.49 -608.33) rotate(90)"/>
        <rect class="cls-3" x="648.92" y="152.74" width="169.18" height="3.35" transform="translate(887.93 -579.09) rotate(90)"/>
        <rect class="cls-3" x="658.66" y="152.84" width="169.18" height="3.35" transform="translate(897.77 -588.74) rotate(90)"/>
        <rect class="cls-3" x="610.97" y="152.67" width="169.18" height="3.35" transform="translate(849.91 -541.22) rotate(90)"/>
        <rect class="cls-3" x="620.26" y="152.75" width="169.18" height="3.35" transform="translate(859.28 -550.43) rotate(90)"/>
        <rect class="cls-3" x="630.01" y="152.85" width="169.18" height="3.35" transform="translate(869.13 -560.07) rotate(90)"/>
      </g>
      <rect class="cls-3" x="1353.69" y="68.41" width="85.84" height="169.02"/>
      <g>
        <rect class="cls-5" x="1307" y="151.31" width="169.18" height="3.35" transform="translate(1544.58 -1238.61) rotate(90)"/>
        <rect class="cls-5" x="1335.95" y="151.45" width="169.18" height="3.35" transform="translate(1573.67 -1267.41) rotate(90)"/>
        <rect class="cls-5" x="1345.69" y="151.55" width="169.18" height="3.35" transform="translate(1583.51 -1277.06) rotate(90)"/>
        <rect class="cls-5" x="1316.29" y="151.39" width="169.18" height="3.35" transform="translate(1553.95 -1247.82) rotate(90)"/>
        <rect class="cls-5" x="1326.04" y="151.49" width="169.18" height="3.35" transform="translate(1563.8 -1257.46) rotate(90)"/>
        <rect class="cls-5" x="1278.35" y="151.32" width="169.18" height="3.35" transform="translate(1515.93 -1209.94) rotate(90)"/>
        <rect class="cls-5" x="1287.64" y="151.4" width="169.18" height="3.35" transform="translate(1525.31 -1219.16) rotate(90)"/>
        <rect class="cls-5" x="1297.39" y="151.5" width="169.18" height="3.35" transform="translate(1535.15 -1228.8) rotate(90)"/>
      </g>
      <g>
        <rect class="cls-3" x="1069.62" y="180.52" width="113.18" height="3.35" transform="translate(944.01 1308.4) rotate(-90)"/>
        <rect class="cls-3" x="1040.67" y="180.42" width="113.18" height="3.35" transform="translate(915.16 1279.36) rotate(-90)"/>
        <rect class="cls-3" x="1030.92" y="180.36" width="113.18" height="3.35" transform="translate(905.48 1269.54) rotate(-90)"/>
        <rect class="cls-3" x="1060.32" y="180.46" width="113.18" height="3.35" transform="translate(934.77 1299.05) rotate(-90)"/>
        <rect class="cls-3" x="1050.58" y="180.4" width="113.18" height="3.35" transform="translate(925.1 1289.24) rotate(-90)"/>
        <rect class="cls-3" x="1098.27" y="180.51" width="113.18" height="3.35" transform="translate(972.67 1337.05) rotate(-90)"/>
        <rect class="cls-3" x="1088.98" y="180.46" width="113.18" height="3.35" transform="translate(963.43 1327.7) rotate(-90)"/>
        <rect class="cls-3" x="1079.23" y="180.39" width="113.18" height="3.35" transform="translate(953.75 1317.89) rotate(-90)"/>
      </g>
      <path class="cls-2" d="m661.71,127.93c0,9.61-2.34,18.67-6.5,26.66-9.63-18.55-29.04-31.22-51.39-31.22h-109.15v-53.31h109.15c31.96,0,57.88,25.9,57.88,57.88Z"/>
      <path class="cls-5" d="m655.21,154.59c-2.74,5.28-6.3,10.09-10.47,14.26-10.47,10.47-24.95,16.94-40.92,16.94h-109.15v-62.43h109.15c22.35,0,41.75,12.67,51.39,31.22Z"/>
      <path class="cls-2" d="m661.71,181.24c0,15.97-6.48,30.45-16.96,40.92-10.47,10.47-24.95,16.94-40.92,16.94h-109.15v-53.31h109.15c15.97,0,30.45-6.48,40.92-16.94,4.17-4.17,7.73-8.98,10.47-14.26,4.15,7.98,6.5,17.04,6.5,26.66Z"/>
    </g>
  </g>
</svg>