<svg id="f8b7e110-6fae-45a7-bf7f-f539498eac62" data-name="Layer 1" xmlns="http://www.w3.org/2000/svg" viewBox="0 0 1920 800"><path d="M470.6,359.44c0-14.65,9.9-24.94,23.76-24.94s23.36,10.29,23.36,24.94c0,14.26-9.1,24.95-23.75,24.95C480.11,384.39,470.6,373.7,470.6,359.44Z"/><path d="M122.35,359.44c0-14.7,9.94-25,23.84-25s23.44,10.33,23.44,25c0,14.3-9.13,25-23.83,25C131.89,384.47,122.35,373.74,122.35,359.44Z"/><path d="M252.43,332.31q5.83,10.59,2.53,17.82,3.51,15.74-4.49,28.57a26.72,26.72,0,0,1-1,7,53.08,53.08,0,0,1-1.95,6,32.71,32.71,0,0,1-4,6.51c-2,2.72-3.34,4.52-4,5.37s-2.38,2.89-5.17,6.1-4.32,5-4.59,5.46q-5.84,7.07-11.3,13.16c-.66.65-1.56,1.58-2.73,2.81s-2,2.17-2.54,2.81a25.12,25.12,0,0,1-2.53,2.57c-1.17,1.07-2.15,2-2.93,2.89a17.26,17.26,0,0,0-2,2.57q-4.29,7.38-19.5,19.91a115.82,115.82,0,0,0-11.5,10.75l-1.36,1.61q-1,1.13-1.56,1.68c-.4.38-.92.88-1.56,1.53a15.87,15.87,0,0,1-1.76,1.52,18.45,18.45,0,0,1-2,1.21,22.62,22.62,0,0,1-2.34,1.12,8,8,0,0,0-1.47.8c-.45.32-.81.59-1.07.81a4.25,4.25,0,0,0-.87,1.12,11.32,11.32,0,0,0-.59,1c-.07.16-.23.62-.48,1.37a8,8,0,0,0-.4,1.28q-2.34,7.38-11.7,16.22a9.63,9.63,0,0,1-4.48,2.48,44.22,44.22,0,0,1-7.21,1.13q-4.5.39-5.85.56c-1.18,0-2,0-2.54.08a5,5,0,0,1-2.24-.56,15.8,15.8,0,0,1-2-1c-.33-.22-1-.62-2-1.21a19.07,19.07,0,0,1-1.85-1.2q-11.11-6.75-16.58-16.38a49.71,49.71,0,0,1-3.12-7.3c-1.17-3.27-1.82-5.11-2-5.54a70.8,70.8,0,0,1-3.9-13.32,111.37,111.37,0,0,1-1.36-15.42q-.41-11.07.39-14.6a15,15,0,0,0-1.37-11.4c-.78-1.28-.78-3.48,0-6.58a13.51,13.51,0,0,0-.78-9.64q-.59-1.11-1.56-7.7c0-.43-.1-1.45-.29-3.05a22.27,22.27,0,0,0-.68-3.69Q84,376.29,84.73,355.75A29.83,29.83,0,0,0,82,343.22a38.33,38.33,0,0,1-2.24-5.94,38.77,38.77,0,0,1-1.27-6.58q-.39-3.52-.49-5.78t-.19-6.58q-.11-4.33-.1-6.1v-3.85a28.33,28.33,0,0,1-1.56-10.92q.19-2.09.59-5.86c.26-2.51.45-4.31.58-5.38a10.35,10.35,0,0,0,.29-3.29A4.21,4.21,0,0,0,76,279.81q-4.3-4,1-8,5.66-4.34,9.46-6.83a58.52,58.52,0,0,1,10-5,42.88,42.88,0,0,1,12.87-3q5.65-.48,6.43-1a38.63,38.63,0,0,1,10-4.09,88.49,88.49,0,0,0,9.07-3q7.2-3.21,19.3-2.89,13.26-.32,19.5,5c1,.86,3,1.6,6,2.25a23.9,23.9,0,0,1,4.68,1.36q2.15.88,4.59,2.17c1.62.86,2.85,1.55,3.7,2.08s2.18,1.45,4,2.73,3,2.09,3.52,2.41,1.88,1.45,4.48,3.37a59.4,59.4,0,0,0,6.24,4.18q12.87,6.58,18.91,18.3a55.79,55.79,0,0,0,9.95,13.64,32.33,32.33,0,0,1,2.54,3.05c.77,1.07,1.42,2,2,2.89a27.33,27.33,0,0,1,1.65,3.37c.59,1.39,1,2.41,1.27,3.05s.68,1.82,1.27,3.53.94,2.79,1.07,3.22a36.91,36.91,0,0,1,1.17,4.49A17.63,17.63,0,0,0,252.43,332.31Zm-50.51,32.42q1.56-3.36,1-15.41t-.39-15.41a6.37,6.37,0,0,0-.39-2.08,17.4,17.4,0,0,0-1.07-2.41,9.37,9.37,0,0,1-.88-2.09c-.13-.43-.62-1.79-1.47-4.09s-1.53-4-2-5.22a75.81,75.81,0,0,0-3.89-8.19,28.76,28.76,0,0,0-5.66-6.58,27.44,27.44,0,0,0-9.36-5.46q-5.46-1.92-17.16-2.57-13.85-.8-18.52,2.33T137,311.12q0,1.44-.39,6.9t-.39,7.86a38.18,38.18,0,0,0,.78,6.59,27,27,0,0,0,2.53,7.54,17.17,17.17,0,0,1,.2,3.85q-1.17,25.86-1.17,26.17a116.75,116.75,0,0,0,0,13.49q0,1.44,1,10.11a72,72,0,0,1,.59,13.16,38.58,38.58,0,0,0,.1,9.88c.45,3.47,1.1,7.28,1.94,11.39s1.4,7.36,1.66,9.72a1.26,1.26,0,0,0,.2.64,3.9,3.9,0,0,0,.49.64c.19.22.42.46.68.72a2.79,2.79,0,0,1,.58.89c3-1.07,4.56-1.66,4.68-1.77q8.58-7.71,16.77-15.25Q169,422,178.33,412.73l1.66-1.28a4.7,4.7,0,0,0,1.65-1.77q1.19-3,8.68-15.49t7.7-20.14a4.14,4.14,0,0,1,.88-2.09c.59-.86.94-1.39,1.07-1.61A52.82,52.82,0,0,0,201.92,364.73Z"/><path d="M440.05,575.26c.24.67-.11,1.83-1.06,3.5a47.18,47.18,0,0,1-2.82,4,32.73,32.73,0,0,0-3.18,4.85c-1.3,2.83-3.34,4.09-6.12,3.8a73.86,73.86,0,0,0-9.85.09c-5,.25-8.82-.06-11.49-1a5.19,5.19,0,0,0-2.78,0,16.21,16.21,0,0,1-2.11.33c-.49,0-1.53.12-3.11.31a23.09,23.09,0,0,1-3.66.2q-6-.45-12.9-.87t-15.07-1.11q-8.2-.69-12.77-1a3.44,3.44,0,0,0-1.86,0,18.19,18.19,0,0,1-8.06.91,32,32,0,0,1-7.92-1.65,25.53,25.53,0,0,0-7.88-1.37l-11.53-1.71-20.35-6.79a1.23,1.23,0,0,1-.82-.53,31.9,31.9,0,0,0-5-5q-2.87-2.32-6.63-4.92t-5.68-4.08q-4.33-3.45-2.55-7.73a6.43,6.43,0,0,0-.63-7.17c-.51-.59-.83-2.08-1-4.46,0-.62.05-2,.15-4s.13-3.62.07-4.61q-1.47-17.91.74-30.08,1.68-10.41,4.67-39.67a18.38,18.38,0,0,1,.84-4.75,21.52,21.52,0,0,0,.93-4.73,15,15,0,0,0-.25-4.87c-.29-.42-.29-.73,0-.92a16.19,16.19,0,0,0,2.31-3.25,9.43,9.43,0,0,0,1-4.07c.07-1.6.13-2.7.19-3.3a23,23,0,0,0-.39-4.16c-.31-2.16-.51-3.37-.57-3.63q-.88-6.85,1.82-10.21,2.31-3.25,1.86-9.46c-.32-5.25.29-9.33,1.86-12.24a4.72,4.72,0,0,0,.74-2.82,47.88,47.88,0,0,1,1.34-11,77.81,77.81,0,0,0,1.7-11c.11-1.83,9.83-78.23,10.47-79.59a13.93,13.93,0,0,0,1.82-6,58.16,58.16,0,0,0,.54-6q0-2,0-6c0-2.67,0-4.67,0-6a22.49,22.49,0,0,0-.9-4.82,20.35,20.35,0,0,0-1.45-2.5c-.9-1.42-1-2.61-.32-3.59a24.79,24.79,0,0,0,2-4.05,22.28,22.28,0,0,1,2.61-4.77,9.23,9.23,0,0,1,3.63-2.9c5.17-2.44,9.17-3.26,12-2.46a10.81,10.81,0,0,0,3.64.35,16.8,16.8,0,0,1,3.14.06q11.88,1.78,13,12.19a23.06,23.06,0,0,1,.13,6.89,67.71,67.71,0,0,0-1,7.58c-.22,2.67-.41,5.7-.58,9.06s-.3,5.9-.39,7.62c-.82,11.7-11.53,98.1-13.42,109.59q-.88,5.39-2,20.09t-3.22,22.44A33,33,0,0,0,320,450c-.55,3.72-1,6.37-1.19,7.92s-.49,4.2-.73,7.92-.41,6.35-.53,7.87-.23,4.15-.35,7.9-.2,6.36-.24,7.83a52,52,0,0,0,2.15,17.29c.52,1.71,1,3.5,1.35,5.37s.73,4,1.07,6.32.63,4.18.87,5.46q1.43,6.95,6.9,14.89,4.5,6.27,11.46,6.71a47.41,47.41,0,0,1,4.77.75l4.73.93c1.45.16,3.55.46,6.32.88s4.8.69,6.13.83l13.49,2.1c.95.19,2.37.5,4.27.94s3.31.74,4.26.93c.12,0,.64,0,1.57,0s1.37.12,1.32.35q4.86,4.49,15.42,4.52c.24.05,2.09.73,5.54,2a25.75,25.75,0,0,0,5.39,1.81,44.12,44.12,0,0,1,6.21,0,32.74,32.74,0,0,1,5.83,1.89c2.87,1.12,4.77,1.84,5.7,2.14Q437.56,567.18,440.05,575.26Z"/><path d="M599.53,348.14q-.16,1.83-.58,5.56c-.27,2.49-.44,4.26-.49,5.31a37.61,37.61,0,0,0,.24,5.06,47.14,47.14,0,0,1,.67,8.21c0,2.93-.09,5.45-.25,7.55s-.44,4.89-.83,8.37-.64,6.06-.74,7.72q-.67,9.12-3.82,12.44a6.6,6.6,0,0,0-1.66,4q-1.5,12.62-9.79,30.36a198.78,198.78,0,0,1-14.6,25.88,22.62,22.62,0,0,1-3.23,3.81q-1.91,1.83-4.73,4.06c-1.88,1.5-3.21,2.57-4,3.24a11.31,11.31,0,0,1-1.74,1.16,6.82,6.82,0,0,0-1.91,1.49q-5.64,8-17.25,6.64a22.58,22.58,0,0,0-5.73.08c-2,.28-4.33.69-6.88,1.25s-4.48.94-5.81,1.16a35.33,35.33,0,0,1-10.94.66A17,17,0,0,1,495.36,488a18.59,18.59,0,0,1-9.7-3.4,72.33,72.33,0,0,1-9-7.46,40,40,0,0,0-7.88-6.22c-.67-.33-1.66-1.83-3-4.48-.22-.44-.58-1.13-1.08-2.08s-.91-1.65-1.24-2.15-.78-1.11-1.33-1.83a7.89,7.89,0,0,0-1.83-1.74,13.37,13.37,0,0,0-2.15-1.16c-.89-1.33-2.54-3.59-5-6.8s-4.24-5.7-5.4-7.47a44.89,44.89,0,0,1-3.65-7.21,32.8,32.8,0,0,1-2.4-9,88.11,88.11,0,0,0-1.58-8.88q-1.08-4.72-2.65-10.45c-1.05-3.81-1.8-6.72-2.24-8.71q-2-9.45-1.66-11.94.5-4,.66-14.1a86.07,86.07,0,0,1,1.33-15.59,13.41,13.41,0,0,0,.17-5.48,44,44,0,0,1-.75-7.46,41.42,41.42,0,0,1,1.33-7.22q1.25-5.06,1.57-7.05a6,6,0,0,1,.83-2q3.65-2.32,6.22-9.62c1.72-4.87,3.62-8.07,5.73-9.62a17.12,17.12,0,0,0,1.82-1.66,6.44,6.44,0,0,1,2.32-1.66q6-2.49,9.95-10.95a16.58,16.58,0,0,1,3.65-5.31,27.3,27.3,0,0,1,3-2.82,23.19,23.19,0,0,0,3.32-3.31q1.32-2,3.81-6.06t4-6.05a21.24,21.24,0,0,1,4.64-4.23,24.81,24.81,0,0,0,5-4.57q4.8-6.63,15.75-9.45,23.57-6.3,24.56-6.47c1-.22,4.25-.06,9.78.5a37.07,37.07,0,0,1,26.21,13.76,20,20,0,0,0,2.66,2.49c1.21,1,2,1.66,2.32,2a32.71,32.71,0,0,1,5,5.81q9.62,18.26,13.6,27.7,1.83,4.32,3.65,16.09.66,4.15,1.24,9c.39,3.21.8,6.72,1.25,10.54s.77,6.82,1,9c0,.55,0,1.41.08,2.57A14.87,14.87,0,0,0,599.53,348.14Zm-52.75,22.23q5.31-18.74,5.48-27-.51-11.94-6.14-31.18a25.24,25.24,0,0,0-2.66-4.82q-4-6.46-12.43-10.78-5.82-3-12.2.83t-8.38,9.29q-.49,1.17-1.32,3.57l-1.33,3.81a33.47,33.47,0,0,1-1.41,3.32,26.75,26.75,0,0,1-1.91,3.4,80.13,80.13,0,0,0-5.72,11.28q-3.24,7.47-4.23,9.29-2.16,4.32-4,14.93-2.49,15.44-4.81,20.24-5.48,11.94.83,26.87,3.31,7.47,3.65,12.61a23,23,0,0,0,5.8,13.93q9.12,10.29,11.11,12.44c1.88,1.89,3.57,2.88,5.07,3s3.34-.66,5.55-2.32a18.78,18.78,0,0,0,5.15-5.64,164.73,164.73,0,0,0,8.62-16.75Q536,410.68,538,406a119.28,119.28,0,0,0,4.4-13.27,70.61,70.61,0,0,0,2.73-15.84A49.85,49.85,0,0,1,546.78,370.37Z"/><path d="M824.82,486.16c-.09,1-.26,2.61-.49,4.72s-.38,3.61-.42,4.5a31.75,31.75,0,0,0,.21,4.29,41.23,41.23,0,0,1,.56,7q0,3.74-.21,6.4c-.14,1.78-.38,4.15-.7,7.1s-.54,5.14-.64,6.54q-.55,7.74-3.23,10.55a5.68,5.68,0,0,0-1.41,3.38q-1.26,10.7-8.3,25.74a167.56,167.56,0,0,1-12.38,21.94,19,19,0,0,1-2.74,3.24c-1.08,1-2.41,2.18-4,3.45s-2.72,2.18-3.37,2.74a9.17,9.17,0,0,1-1.48,1,5.71,5.71,0,0,0-1.62,1.27q-4.79,6.75-14.63,5.63a18.44,18.44,0,0,0-4.85.07c-1.74.23-3.68.58-5.84,1.05s-3.8.8-4.92,1a30.14,30.14,0,0,1-9.29.56,14.41,14.41,0,0,1-8.58-3.52,15.69,15.69,0,0,1-8.22-2.88,63.8,63.8,0,0,1-7.6-6.33,34.61,34.61,0,0,0-6.68-5.28q-.86-.42-2.53-3.79c-.19-.38-.5-1-.92-1.76s-.77-1.41-1-1.83-.66-.94-1.13-1.55a6.3,6.3,0,0,0-1.55-1.47,11,11,0,0,0-1.82-1c-.76-1.12-2.16-3.05-4.22-5.77s-3.59-4.83-4.58-6.33a38.57,38.57,0,0,1-3.09-6.12,27.59,27.59,0,0,1-2-7.66,73.43,73.43,0,0,0-1.34-7.53q-.91-4-2.25-8.86c-.89-3.23-1.52-5.7-1.9-7.38q-1.68-8-1.4-10.13.42-3.37.56-12a73.78,73.78,0,0,1,1.12-13.22,11.24,11.24,0,0,0,.15-4.64,38.11,38.11,0,0,1-.64-6.33,35.22,35.22,0,0,1,1.13-6.12c.7-2.86,1.15-4.85,1.33-6a5.19,5.19,0,0,1,.71-1.69q3.09-2,5.27-8.16c1.46-4.12,3.07-6.84,4.86-8.15a14.19,14.19,0,0,0,1.54-1.41,5.62,5.62,0,0,1,2-1.41q5.07-2.1,8.44-9.28a13.84,13.84,0,0,1,3.1-4.5,21.14,21.14,0,0,1,2.53-2.39A19.68,19.68,0,0,0,719,431q1.13-1.68,3.24-5.13c1.4-2.3,2.53-4,3.37-5.14a18.48,18.48,0,0,1,3.94-3.58,20.69,20.69,0,0,0,4.22-3.87q4.08-5.62,13.36-8,20-5.34,20.82-5.48c.85-.19,3.61-.05,8.3.42a31.44,31.44,0,0,1,22.23,11.67,15.57,15.57,0,0,0,2.25,2.11c1,.85,1.69,1.41,2,1.69a27.63,27.63,0,0,1,4.22,4.92q8.14,15.48,11.53,23.49,1.54,3.66,3.1,13.65c.37,2.34.72,4.88,1,7.59s.68,5.7,1.06,8.94.65,5.79.84,7.66c0,.47,0,1.2.07,2.18A12.91,12.91,0,0,0,824.82,486.16ZM780.09,505q4.5-15.88,4.64-22.93-.42-10.12-5.2-26.44a22.14,22.14,0,0,0-2.25-4.08,25.58,25.58,0,0,0-10.55-9.14q-4.93-2.54-10.34.7T749.28,451c-.28.65-.65,1.66-1.12,3s-.84,2.44-1.13,3.24-.68,1.73-1.19,2.81a23.85,23.85,0,0,1-1.62,2.88,67.66,67.66,0,0,0-4.85,9.57q-2.75,6.33-3.59,7.88-1.83,3.66-3.38,12.66-2.1,13.08-4.07,17.16-4.65,10.13.7,22.78a32.88,32.88,0,0,1,3.09,10.69,19.51,19.51,0,0,0,4.93,11.82q7.73,8.73,9.42,10.55c1.59,1.6,3,2.44,4.29,2.53s2.84-.56,4.71-2a15.67,15.67,0,0,0,4.36-4.78,139,139,0,0,0,7.32-14.21q3.79-8.43,5.48-12.45a99.73,99.73,0,0,0,3.73-11.25,59.94,59.94,0,0,0,2.32-13.43A43.67,43.67,0,0,1,780.09,505Z"/><path d="M1011.48,410.35q5.21,9-1.12,17.16a25.59,25.59,0,0,1-8,7q-14.07,6.75-23.91,4.08-3.1-.84-12.52-.56-.57,0-5.49.42a42.66,42.66,0,0,1-7.6.14q-7.46-.84-8.58,7.31c-.18,1.13-.33,2.35-.42,3.66s-.16,2.74-.21,4.29-.12,2.74-.21,3.59a18.29,18.29,0,0,1-.28,2.32,18.2,18.2,0,0,0-.28,2.74c-.1,2.07-.14,5.07-.14,9,0,.38,0,.92.07,1.62s.07,1.34.07,1.9a8.27,8.27,0,0,1-.14,1.55c-.28,1-.52,2-.71,3a24,24,0,0,0-.35,3.31,27.16,27.16,0,0,0,0,2.88c.05.7.09,1.81.14,3.31s.07,2.53.07,3.09q.15,4.79.07,14.14t.07,14.14q0,2.52,1.55,20.81a32,32,0,0,1,.14,4.93c-.28,2.16-.7,5.34-1.26,9.56s-.94,7.36-1.13,9.43q-2,19-2.11,19.69a10.63,10.63,0,0,0,1.27,7.31,6.57,6.57,0,0,1,.42,6.33c-.1.29-.26.68-.49,1.2s-.4.91-.5,1.2q-2.39,7.17.85,12.65a10.11,10.11,0,0,1,.35,8.66,11.65,11.65,0,0,1-5.7,6.82q-4.08,2.1-13.92,2.11a23.72,23.72,0,0,0-5.07-2.89,13,13,0,0,1-5.2-3.72q-8.16-11.4-9.85-21.81c-.66-3.18-1.36-6.19-2.11-9a46.86,46.86,0,0,1-1.83-13.08q0-.13-1.26-17.44a78.76,78.76,0,0,1,.28-16.6,74.38,74.38,0,0,0,.77-9.36c.14-4.07.26-6.49.35-7.24s.47-3,1.13-6.47c.19-1.13.37-2.72.56-4.78,0-.28-.05-.85-.14-1.69s-.05-1.36.14-1.55a22.75,22.75,0,0,0,2.11-6.19c.47-2.34.75-4.05.85-5.13s.07-3.33-.07-6.75-.22-5.28-.22-5.56q-.14-7.74.43-23.21a13.45,13.45,0,0,1,.49-3.09c.33-1.32.54-2.21.63-2.68s.31-1.66.63-3.3.54-2.86.64-3.66.18-1.87.28-3.23a14.68,14.68,0,0,0-.21-3.8,13.75,13.75,0,0,0-1.2-3.45c-2.53-.28-3.84-.42-3.94-.42q-2.8,0-9.56-.07c-4.5,0-8.39,0-11.68.07a79.76,79.76,0,0,0-9.56.84q-6.61,1-10.41-5.2-1.41-2.53-1.83-2.67-6.2-2.4-6.47-9.57a9.45,9.45,0,0,0-1.12-2.11q-2.4-4.35-2-6.12t4.29-4.85c.09-.09.75-.58,2-1.48a15.51,15.51,0,0,0,2.53-2.18q5.76-6.18,11.81-3.23a8.41,8.41,0,0,0,4.08.28q19.41-1.41,30,.56a5.61,5.61,0,0,0,1.83,0,15.59,15.59,0,0,0,2.53-.63l2-.63c.75-.19,2.14-.59,4.15-1.2a41.21,41.21,0,0,1,4.72-1.2c1-.18,3.18-.6,6.47-1.26s6-1.15,8.22-1.48a61.69,61.69,0,0,1,6.55-.63q4.5-.13,17.37-1.41a180,180,0,0,1,19.9-1.12q2.67,0,11.4,1a62.29,62.29,0,0,0,13.5.42c.84-.09,2.11.38,3.8,1.41A22.56,22.56,0,0,1,1011.48,410.35Z"/><path d="M1190.55,410.35q5.19,9-1.13,17.16a25.48,25.48,0,0,1-8,7q-14.06,6.75-23.91,4.08-3.09-.84-12.52-.56c-.37,0-2.2.14-5.48.42a42.67,42.67,0,0,1-7.6.14q-7.46-.84-8.58,7.31-.29,1.69-.42,3.66c-.1,1.32-.17,2.74-.21,4.29s-.12,2.74-.21,3.59a19,19,0,0,1-.29,2.32,18.2,18.2,0,0,0-.28,2.74q-.14,3.11-.14,9c0,.38,0,.92.07,1.62s.07,1.34.07,1.9a8.27,8.27,0,0,1-.14,1.55c-.28,1-.51,2-.7,3a21.29,21.29,0,0,0-.35,3.31,27.16,27.16,0,0,0,0,2.88c0,.7.09,1.81.14,3.31s.07,2.53.07,3.09q.13,4.79.07,14.14t.07,14.14q0,2.52,1.55,20.81a33.31,33.31,0,0,1,.14,4.93c-.28,2.16-.71,5.34-1.27,9.56s-.94,7.36-1.12,9.43q-2,19-2.11,19.69a10.63,10.63,0,0,0,1.26,7.31,6.54,6.54,0,0,1,.42,6.33,12.82,12.82,0,0,1-.49,1.2,12.82,12.82,0,0,0-.49,1.2q-2.4,7.17.84,12.65a10,10,0,0,1,.35,8.66,11.67,11.67,0,0,1-5.69,6.82q-4.08,2.1-13.93,2.11a23.31,23.31,0,0,0-5.06-2.89,13.1,13.1,0,0,1-5.21-3.72q-8.16-11.4-9.84-21.81c-.66-3.18-1.36-6.19-2.11-9a46.86,46.86,0,0,1-1.83-13.08q0-.13-1.27-17.44a79.44,79.44,0,0,1,.28-16.6,72.16,72.16,0,0,0,.78-9.36c.14-4.07.25-6.49.35-7.24s.47-3,1.12-6.47c.19-1.13.38-2.72.57-4.78,0-.28,0-.85-.14-1.69s-.05-1.36.14-1.55a23.09,23.09,0,0,0,2.11-6.19,50.72,50.72,0,0,0,.84-5.13q.13-1.62-.07-6.75c-.14-3.43-.21-5.28-.21-5.56q-.13-7.74.42-23.21a13.45,13.45,0,0,1,.49-3.09c.33-1.32.54-2.21.64-2.68s.3-1.66.63-3.3.54-2.86.63-3.66.19-1.87.28-3.23a13.5,13.5,0,0,0-1.4-7.25c-2.53-.28-3.85-.42-3.94-.42-1.88,0-5.06,0-9.57-.07s-8.39,0-11.67.07a80.11,80.11,0,0,0-9.57.84c-4.41.66-7.87-1.07-10.41-5.2-.93-1.69-1.54-2.58-1.82-2.67q-6.2-2.4-6.47-9.57a9.26,9.26,0,0,0-1.13-2.11c-1.6-2.9-2.27-4.94-2-6.12s1.66-2.79,4.29-4.85c.09-.09.75-.58,2-1.48a15.09,15.09,0,0,0,2.53-2.18q5.78-6.18,11.82-3.23a8.41,8.41,0,0,0,4.08.28q19.41-1.41,30,.56a5.61,5.61,0,0,0,1.83,0,15.85,15.85,0,0,0,2.53-.63l2-.63c.75-.19,2.13-.59,4.15-1.2a40.64,40.64,0,0,1,4.71-1.2q1.55-.27,6.47-1.26t8.23-1.48a61.26,61.26,0,0,1,6.54-.63q4.5-.13,17.37-1.41a180.2,180.2,0,0,1,19.91-1.12q2.67,0,11.39,1a62.29,62.29,0,0,0,13.5.42c.85-.09,2.11.38,3.8,1.41A22.59,22.59,0,0,1,1190.55,410.35Z"/><path d="M1378.33,518.52a11.25,11.25,0,0,1-1.26,7.45,11.56,11.56,0,0,1-5.21,5.35c-1.22.47-3.54,1.47-7,3s-6.07,2.7-8,3.45q-9,3.8-15.89,3.37a22.45,22.45,0,0,0-10.83,2q-12.11,5.21-21.53,5.21l-2.53.42c-2.34.56-3.47,2-3.37,4.22a70.34,70.34,0,0,0,.84,10.27c.19.75.58,2.76,1.2,6s1.05,5.6,1.33,7,.78,3.21,1.48,5.55a51,51,0,0,0,2.32,6.33q3.24,6.9,1.69,17.59a6,6,0,0,1-2.39,4.22,35.9,35.9,0,0,0-6.33,5.62,7.33,7.33,0,0,1-7.74,2.4c-.38-.1-1.15-.36-2.32-.78a5.71,5.71,0,0,0-2.6-.49q-3.66.7-5.84-1a16.42,16.42,0,0,1-4.15-5.34q-1.41-2.82-3.66-8.72-1.68-4.78,1.27-8,2.67-3,1-7.31-1.83-4.79-3-14.14T1274.38,561a11.37,11.37,0,0,1-.28-1.9,10.45,10.45,0,0,0-.42-2.32,4.41,4.41,0,0,0-5.21-3.52c-.65.09-1.57.26-2.74.49s-2,.4-2.32.49a2.51,2.51,0,0,0-.14-.56q-12.37,2.25-18.57,3.24a8.16,8.16,0,0,0-6.19,4.08,53.13,53.13,0,0,0-4.92,9.14q-1.83,4.79-5,13.43T1224.45,595a6.69,6.69,0,0,1-1,2.39q-7.87,6-14.2,7.73a6.4,6.4,0,0,1-4.08-.56,41.08,41.08,0,0,1-3.94-1.9c-1.69-.89-2.68-1.43-3-1.61q-3.66-1.83-5.34-7.32-3-10.26-2.82-13.85t4.22-14.14q3.39-8.87,3.1-15.76a20,20,0,0,1,4.08-12.8,33.43,33.43,0,0,0,3.94-8.15,63.41,63.41,0,0,1,3-7.32c.38-.84.94-2.16,1.69-3.94s1.31-3.09,1.69-3.94a20.79,20.79,0,0,0,2.53-9.84,22.91,22.91,0,0,1,1-5.91c.19-.84,1-3.82,2.54-8.93s2.53-9,3.09-11.75a72.26,72.26,0,0,1,3.24-10,66.65,66.65,0,0,0,3.23-10.26c.28-1.41.82-3.75,1.62-7s1.38-6.14,1.76-8.58a26.57,26.57,0,0,0,.14-7.17,7,7,0,0,1,1.12-4.78q3-4.37,5.49-13.51c.65-2.25,2.39-4.45,5.2-6.61a13.55,13.55,0,0,1,6.76-2.74,10.65,10.65,0,0,1,6.75,1.62q4.5,3.22,15.61,6.89c.47.19,1.15.42,2,.7s1.57.52,2,.7a7.62,7.62,0,0,1,4.64,4.79c0,.09.19.77.56,2a10.73,10.73,0,0,0,1.13,2.74,31.31,31.31,0,0,1,5.77,18.57,19.27,19.27,0,0,0,1.4,4.92,47.85,47.85,0,0,1,2.68,16.74q-.15,2.67,1,20.54c0,.28.07.94.21,2a8.66,8.66,0,0,1,.07,2.39q-1.12,4.92,1.55,12.52a32.56,32.56,0,0,1,1,3.37q1.13,4.78,2.82,6t6.61.85a28.68,28.68,0,0,0,5.91-.85,46.12,46.12,0,0,1,6-1.41c2.21-.37,4.08-.63,5.63-.77s3.63-.3,6.26-.49l5.91-.42a23.67,23.67,0,0,1,4.36-.14q4.08.42,12.24,1.4t12.37,1.41c.94.09,2.23.14,3.87.14h3.87Q1377.35,513.17,1378.33,518.52Zm-117.45-3.38a7.16,7.16,0,0,0,3.8-1.9,5.65,5.65,0,0,0,.84-3.87A95.31,95.31,0,0,0,1260,481.8a13,13,0,0,0-2-2.67,1.71,1.71,0,0,0-1.62-.35,1.64,1.64,0,0,0-1.34.91q-.42,2.12-2.11,8.65t-2.53,11a56.44,56.44,0,0,0-1,8.79,28.47,28.47,0,0,0,.56,4.92Q1256,516.41,1260.88,515.14Z"/><path d="M1646.58,441.71a11.38,11.38,0,0,1-2.39,9.57c-.28.37-.64.8-1.06,1.26s-.68.76-.77.85a2.76,2.76,0,0,0-.42.7,5.53,5.53,0,0,0-.43,1.2c-.09.42-.23,1-.42,1.9a82.07,82.07,0,0,0-2.67,16.88,173.44,173.44,0,0,1-5.49,36.43q-.42,2-1.4,10.83a12.61,12.61,0,0,0-.14,1.9,10,10,0,0,1-.07,1.33q-.08.44-.21,1c-.66,2.06-1.58,4.88-2.75,8.44s-2,6-2.46,7.45a17.85,17.85,0,0,0-1.12,4.79q0,4.78-2.68,17.44-.42,1.83-1.26,4.78t-1.41,5.42a20.83,20.83,0,0,0-.56,4.71,86.77,86.77,0,0,1-1,11,88.1,88.1,0,0,0-1,10.83,6,6,0,0,1-.56,3.24,49.92,49.92,0,0,0-3.45,6.19,34.5,34.5,0,0,1-3.31,5.76,40.43,40.43,0,0,0-3.65,4.65q-4.52,7.46-14.91,13.5a5.74,5.74,0,0,1-5.63.42,29.58,29.58,0,0,0-10.83-1.69,9.09,9.09,0,0,1-4.78-1.19,18.11,18.11,0,0,1-4.36-4.15q-1-1.27-3.38-4.29c-1.6-2-3.14-3.94-4.64-5.77s-2.82-3.4-3.94-4.71a31.51,31.51,0,0,0-3.66-3.66,10.92,10.92,0,0,1-4.64-6.47q-.84-3.09-5.35-8a22.16,22.16,0,0,1-4.92-8,10.81,10.81,0,0,0-1.83-3.79q-8.16-9.57-17.44-20.54c-.28-.28-.75-.7-1.41-1.27a3,3,0,0,0-2.39-.56,2.16,2.16,0,0,0-2.11,1.41c-.19.37-.49,1.08-.91,2.11s-.78,1.83-1.06,2.39q-1.12,2-3.65,7t-4.22,8a46.9,46.9,0,0,0-6.62,18.85,32.38,32.38,0,0,1-5.62,15.19,35,35,0,0,0-4.5,8.3q-3.11,8.72-13.08,11.67a31.17,31.17,0,0,1-16.18,1,25.93,25.93,0,0,1-3.94-1,19.3,19.3,0,0,1-3-2.67,33.21,33.21,0,0,1-8.3-12.24q-5.91-15-5.77-21.38a7.78,7.78,0,0,0-1.41-4.36c-1.5-2.15-3-6.19-4.36-12.09a44,44,0,0,0-3.37-9.57q-3.52-6.88-1.83-10.83a5,5,0,0,0,0-2.39q-.84-3.09-2.53-12.45a103.5,103.5,0,0,0-3.38-14.28,1.72,1.72,0,0,0-.28-.77,1.72,1.72,0,0,1-.28-.77,87.88,87.88,0,0,0-2.89-12.73q-2.31-8.1-3-12a26.66,26.66,0,0,0-1.41-4.86q-1.12-3-1.54-4.57-3.1-11.52-4.65-14.06-1.26-2.12-1.26-6.61a42.34,42.34,0,0,0-.56-6.4c-.38-2.39-.87-4.93-1.48-7.6s-1-4.57-1.2-5.7q-.56-3.09-1.4-7.73t-1-5.35v-3.94a16.48,16.48,0,0,1,.78-3.51,27.87,27.87,0,0,0,.77-3,6.35,6.35,0,0,1,.28-1.19c.09-.24.19-.33.28-.29s.23,0,.42-.06a3.23,3.23,0,0,0,.71-.57,9.29,9.29,0,0,1,1.75-1.26,12.89,12.89,0,0,0,2.47-2,11.53,11.53,0,0,1,5.13-3.1,10.34,10.34,0,0,1,6.68.28c1,.66,2.39.62,4.08-.14q4.65-2,10.41,4.36a4.89,4.89,0,0,1,1.06,1.41,2.45,2.45,0,0,1,.14,1.13,6.62,6.62,0,0,0-.07.84q.42,5.07.7,13.78t.56,12.66q.13,1,1.41,5.91,2.38,8.87,3.66,15.34.27,1.26.63,3.51c.23,1.5.49,2.91.77,4.22a29.62,29.62,0,0,1,1,11.4,15.35,15.35,0,0,0,2.39,10.83,44.53,44.53,0,0,1,3.52,8.58c.18.47.63,1.87,1.33,4.22s1.24,4.08,1.62,5.2q1,2.67,0,8.16-.7,3.94,1.12,6.33,3.1,4.36,5.77,17,2.11,10.13,3.1,12.24a10.31,10.31,0,0,0,.42,1c.19.42.35.78.49,1.06a10.66,10.66,0,0,1,.42,1,3.51,3.51,0,0,0,.42.85,6.3,6.3,0,0,0,.5.56,1.19,1.19,0,0,0,.56.35,2.15,2.15,0,0,0,.56.07q3.52-.84,6-9.28a33.92,33.92,0,0,1,4.78-10.13,22,22,0,0,0,3-5.35q3.09-9.29,5.62-12.52a5.32,5.32,0,0,0,.57-1.54,43.21,43.21,0,0,1,1.4-6,52.26,52.26,0,0,1,1.9-5.35c.61-1.4,1.5-3.35,2.68-5.83s2-4.29,2.46-5.42a16.93,16.93,0,0,0,.7-10,13.07,13.07,0,0,1,1.27-9c.37-.75,1-2,1.82-3.8s1.62-3.42,2.33-4.92a28.52,28.52,0,0,1,1.89-3.52c.29-.46.59-1,.92-1.54l.7-1.2a9.62,9.62,0,0,1,.64-.91,3.56,3.56,0,0,1,1-.92l1.41-.91a40.56,40.56,0,0,0,10.12-7.74,5.58,5.58,0,0,1,2.61-1.83,4.91,4.91,0,0,1,2.74.28,7.86,7.86,0,0,1,1.9.64,6,6,0,0,0,1.62.56,11.92,11.92,0,0,0,2.11-.07,9.22,9.22,0,0,1,6.89,1,29.39,29.39,0,0,1,5.7,4.43,24.78,24.78,0,0,1,4.43,5.28,18.27,18.27,0,0,1,1.05,2.25,8,8,0,0,0,.92,1.83,10.07,10.07,0,0,0,1.68,1.55A13.45,13.45,0,0,1,1549,496c0,.19.09.84.28,2a17,17,0,0,1,.28,2.18c0,.33,0,.89-.07,1.69A7.31,7.31,0,0,1,1549,504a9.24,9.24,0,0,1-.92,1.76c-1.5,2.15-2.15,5.29-2,9.42,0,.84.1,2.27.29,4.29s.32,3.54.42,4.57a20.51,20.51,0,0,1-.14,3.94q-.57,3,2,7a65.64,65.64,0,0,1,6.61,16.18,33.73,33.73,0,0,0,6.47,12.66,27.59,27.59,0,0,1,3,4.36,21.51,21.51,0,0,1,1.48,4.64q.84,3.95,7.6,11.54a2.2,2.2,0,0,0,1.68.77,2.25,2.25,0,0,0,1.83-.63,5.5,5.5,0,0,0,1.55-3.24q.28-2,.91-5.48c.43-2.35.75-4.48,1-6.4a32.9,32.9,0,0,0,.21-5.56c0-.94.14-1.5.42-1.69a6.43,6.43,0,0,0,2.39-3.37,9.19,9.19,0,0,0,.35-3.73,17.06,17.06,0,0,1,.07-4,249.17,249.17,0,0,0,2.11-27.57,20.65,20.65,0,0,1,1.55-6.75,44.42,44.42,0,0,0,2.39-9.71c.75-5.15,1.17-8,1.27-8.58a13,13,0,0,1,1.12-4.64,25.31,25.31,0,0,0,1.76-3.66c.52-1.31.94-2.46,1.27-3.44a28,28,0,0,0,.91-3.87c.28-1.6.49-2.77.64-3.52s.3-2.09.49-4,.28-3.14.28-3.66.07-1.87.21-4.07.21-3.5.21-3.87a16.66,16.66,0,0,1,1.27-6.33,17.13,17.13,0,0,0,1.61-5.7,17.4,17.4,0,0,0-.07-6.12,17.38,17.38,0,0,1,.29-9.28,8.3,8.3,0,0,0,.42-2q-.15-4.08,1-6.05a19.28,19.28,0,0,1,4.64-4.78c.29-.19.52-.35.71-.5a5.94,5.94,0,0,0,.56-.49,22.73,22.73,0,0,1,9.5-4.5,28.52,28.52,0,0,1,10.76-.7,21.28,21.28,0,0,1,4.29,1,27.53,27.53,0,0,1,3,1.2c.66.33,1.73,1,3.24,1.9s2.57,1.59,3.23,2a3.7,3.7,0,0,1,1.83,3.37C1644.66,430,1645.26,435,1646.58,441.71Z"/><path d="M1846.46,518.52a11.25,11.25,0,0,1-1.26,7.45,11.56,11.56,0,0,1-5.21,5.35c-1.22.47-3.54,1.47-7,3s-6.07,2.7-8,3.45q-9,3.8-15.89,3.37a22.51,22.51,0,0,0-10.84,2q-12.09,5.21-21.52,5.21l-2.53.42c-2.34.56-3.47,2-3.37,4.22a68.89,68.89,0,0,0,.84,10.27c.19.75.58,2.76,1.2,6s1,5.6,1.33,7,.78,3.21,1.48,5.55a51,51,0,0,0,2.32,6.33q3.24,6.9,1.69,17.59a6,6,0,0,1-2.39,4.22,35.9,35.9,0,0,0-6.33,5.62,7.34,7.34,0,0,1-7.74,2.4c-.38-.1-1.15-.36-2.32-.78a5.71,5.71,0,0,0-2.6-.49q-3.66.7-5.84-1a16.42,16.42,0,0,1-4.15-5.34q-1.41-2.82-3.66-8.72-1.68-4.78,1.27-8,2.67-3,1-7.31-1.83-4.79-3-14.14T1742.51,561a11.37,11.37,0,0,1-.28-1.9,10.45,10.45,0,0,0-.42-2.32,4.41,4.41,0,0,0-5.21-3.52c-.65.09-1.57.26-2.74.49s-1.95.4-2.32.49a2.51,2.51,0,0,0-.14-.56q-12.37,2.25-18.57,3.24a8.16,8.16,0,0,0-6.19,4.08,53.13,53.13,0,0,0-4.92,9.14q-1.83,4.79-5,13.43T1692.58,595a6.69,6.69,0,0,1-1,2.39q-7.87,6-14.21,7.73a6.4,6.4,0,0,1-4.08-.56,41.15,41.15,0,0,1-3.93-1.9c-1.69-.89-2.68-1.43-3-1.61q-3.66-1.83-5.34-7.32-3-10.26-2.82-13.85t4.22-14.14q3.39-8.87,3.1-15.76a20,20,0,0,1,4.08-12.8,33.43,33.43,0,0,0,3.94-8.15,63.41,63.41,0,0,1,3-7.32c.37-.84.94-2.16,1.69-3.94s1.31-3.09,1.69-3.94a20.79,20.79,0,0,0,2.53-9.84,22.91,22.91,0,0,1,1-5.91c.19-.84,1-3.82,2.54-8.93s2.53-9,3.09-11.75a73.31,73.31,0,0,1,3.23-10,65.8,65.8,0,0,0,3.24-10.26c.28-1.41.82-3.75,1.62-7s1.38-6.14,1.76-8.58a26.57,26.57,0,0,0,.14-7.17,7,7,0,0,1,1.12-4.78q3-4.37,5.49-13.51c.65-2.25,2.39-4.45,5.2-6.61a13.56,13.56,0,0,1,6.75-2.74,10.67,10.67,0,0,1,6.76,1.62q4.5,3.22,15.61,6.89c.47.19,1.15.42,2,.7s1.57.52,2,.7a7.62,7.62,0,0,1,4.64,4.79c0,.09.19.77.56,2a10.73,10.73,0,0,0,1.13,2.74,31.31,31.31,0,0,1,5.77,18.57,19.27,19.27,0,0,0,1.4,4.92,47.85,47.85,0,0,1,2.68,16.74q-.15,2.67,1,20.54c0,.28.07.94.21,2a8.66,8.66,0,0,1,.07,2.39q-1.12,4.92,1.55,12.52a32.56,32.56,0,0,1,1,3.37q1.13,4.78,2.82,6t6.61.85a28.68,28.68,0,0,0,5.91-.85,46.12,46.12,0,0,1,6-1.41c2.21-.37,4.08-.63,5.63-.77s3.63-.3,6.26-.49l5.91-.42a23.67,23.67,0,0,1,4.36-.14q4.08.42,12.24,1.4t12.37,1.41c.94.09,2.23.14,3.87.14h3.87Q1845.48,513.17,1846.46,518.52ZM1729,515.14a7.16,7.16,0,0,0,3.8-1.9,5.65,5.65,0,0,0,.84-3.87,95.31,95.31,0,0,0-5.49-27.57,13.19,13.19,0,0,0-2-2.67,1.69,1.69,0,0,0-1.61-.35,1.64,1.64,0,0,0-1.34.91q-.42,2.12-2.11,8.65t-2.53,11a57.7,57.7,0,0,0-1,8.79,28.66,28.66,0,0,0,.57,4.92C1722.12,515.28,1725.72,516,1729,515.14Z"/><path d="M798,226.62q3.46,7.6,1.5,12.79,2.07,11.31-2.65,20.52a22.68,22.68,0,0,1-.58,5,42.56,42.56,0,0,1-1.15,4.33,24.65,24.65,0,0,1-2.36,4.66l-2.36,3.87q-.58.92-3.06,4.38t-2.71,3.92q-3.45,5.07-6.68,9.45c-.39.46-.92,1.13-1.62,2s-1.19,1.56-1.49,2a17.52,17.52,0,0,1-1.5,1.84c-.69.77-1.27,1.47-1.73,2.08a12,12,0,0,0-1.15,1.84q-2.55,5.31-11.53,14.3a74.73,74.73,0,0,0-6.8,7.72c-.16.23-.42.62-.81,1.15s-.69.94-.92,1.21l-.92,1.1a10.24,10.24,0,0,1-1,1.09,11.77,11.77,0,0,1-1.15.87,13.07,13.07,0,0,1-1.39.8,4.81,4.81,0,0,0-.86.58,8.1,8.1,0,0,0-.63.58,3,3,0,0,0-.52.8,7.87,7.87,0,0,0-.35.75c0,.12-.13.45-.29,1a8.07,8.07,0,0,0-.23.92q-1.38,5.31-6.91,11.65a5.54,5.54,0,0,1-2.65,1.78,21.81,21.81,0,0,1-4.27.81c-1.77.19-2.92.33-3.46.4a13.14,13.14,0,0,0-1.5.06,2.54,2.54,0,0,1-1.32-.4,7.68,7.68,0,0,1-1.15-.7l-1.16-.86a12.38,12.38,0,0,1-1.09-.86,30.56,30.56,0,0,1-9.8-11.76,39.42,39.42,0,0,1-1.84-5.25c-.69-2.34-1.08-3.66-1.16-4a59.67,59.67,0,0,1-2.3-9.57,97.77,97.77,0,0,1-.81-11.06,64.84,64.84,0,0,1,.23-10.49,12.77,12.77,0,0,0-.8-8.19q-.69-1.38,0-4.72a11.72,11.72,0,0,0-.46-6.92,32.19,32.19,0,0,1-.93-5.53c0-.31,0-1-.17-2.19a19.52,19.52,0,0,0-.4-2.65q-2.65-9.57-2.19-24.32a25.33,25.33,0,0,0-1.62-9,31.48,31.48,0,0,1-1.32-4.27,32.6,32.6,0,0,1-.75-4.72c-.16-1.69-.25-3.08-.29-4.15s-.08-2.65-.11-4.73-.06-3.53-.06-4.38v-2.76a20.25,20.25,0,0,1-.81-4.1,21.48,21.48,0,0,1-.11-3.74c.07-1,.19-2.4.34-4.21s.27-3.09.35-3.86a9.2,9.2,0,0,0,.17-2.36,3.28,3.28,0,0,0-1-2.25q-2.53-2.88.58-5.76c2.22-2.08,4.09-3.71,5.59-4.9a32.63,32.63,0,0,1,5.93-3.58,21.75,21.75,0,0,1,7.61-2.13,12.54,12.54,0,0,0,3.8-.69,20.55,20.55,0,0,1,5.94-2.94,45.29,45.29,0,0,0,5.36-2.13q4.26-2.31,11.41-2.08,7.85-.22,11.53,3.58a8.15,8.15,0,0,0,3.57,1.61,12.6,12.6,0,0,1,2.77,1,30,30,0,0,1,2.71,1.56c.95.61,1.68,1.11,2.19,1.49s1.28,1,2.36,2,1.76,1.5,2.07,1.73,1.12,1,2.65,2.42a34.42,34.42,0,0,0,3.69,3,27.92,27.92,0,0,1,11.18,13.14,40.69,40.69,0,0,0,5.88,9.8,21.14,21.14,0,0,1,1.5,2.19c.46.77.84,1.46,1.15,2.07a20.27,20.27,0,0,1,1,2.42q.52,1.5.75,2.19c.15.46.4,1.31.75,2.54s.56,2,.63,2.3a29.48,29.48,0,0,1,.7,3.23A14.71,14.71,0,0,0,798,226.62ZM768.13,249.9q.92-2.42.58-11.06c-.23-5.77-.31-9.45-.23-11.07a5.65,5.65,0,0,0-.23-1.5,15.74,15.74,0,0,0-.64-1.73,7.89,7.89,0,0,1-.52-1.49c-.07-.31-.36-1.29-.86-2.94s-.91-2.9-1.21-3.75a60.58,60.58,0,0,0-2.31-5.88,19.82,19.82,0,0,0-3.34-4.72,15.8,15.8,0,0,0-5.53-3.92c-2.15-.92-5.54-1.54-10.15-1.85q-8.18-.57-11,1.68t-3,9.73c0,.7-.08,2.35-.23,5s-.23,4.5-.23,5.65a32.44,32.44,0,0,0,.46,4.72,21.6,21.6,0,0,0,1.5,5.42,16.3,16.3,0,0,1,.11,2.77q-.69,18.56-.69,18.79-.24,4.83,0,9.68,0,1,.58,7.26a62.18,62.18,0,0,1,.34,9.45,33.73,33.73,0,0,0,.06,7.09q.4,3.75,1.15,8.18t1,7a1,1,0,0,0,.12.46,2.34,2.34,0,0,0,.29.46c.11.15.24.33.4.52a1.93,1.93,0,0,1,.34.63,28.73,28.73,0,0,0,2.77-1.27q5.07-5.52,9.91-10.95c.69-.76,2.88-3.38,6.57-7.83l1-.93a3.13,3.13,0,0,0,1-1.26,116.76,116.76,0,0,1,5.13-11.13q4.44-8.93,4.56-14.46a3.34,3.34,0,0,1,.51-1.5l.64-1.15C767.59,252,768,250.67,768.13,249.9Z"/><path d="M968.11,263.62a9.17,9.17,0,0,1-1,6.11,9.44,9.44,0,0,1-4.26,4.38q-1.5.57-5.71,2.48c-2.8,1.26-5,2.21-6.51,2.82q-7.38,3.1-13,2.77a18.35,18.35,0,0,0-8.88,1.61q-9.91,4.26-17.63,4.26l-2.08.35a3.14,3.14,0,0,0-2.76,3.46,56.73,56.73,0,0,0,.69,8.41c.15.62.48,2.27,1,5s.86,4.59,1.09,5.7.64,2.64,1.21,4.56a42.67,42.67,0,0,0,1.9,5.18q2.65,5.65,1.39,14.41a5,5,0,0,1-2,3.46,29.53,29.53,0,0,0-5.19,4.61,6,6,0,0,1-6.34,2c-.31-.08-.94-.29-1.9-.63a4.66,4.66,0,0,0-2.13-.41,5.74,5.74,0,0,1-4.79-.8,13.9,13.9,0,0,1-3.4-4.38q-1.15-2.31-3-7.15c-.93-2.61-.58-4.8,1-6.57q2.19-2.42.81-6a51.47,51.47,0,0,1-2.42-11.59q-.93-7.66-1.27-9.16a10.28,10.28,0,0,1-.23-1.56,9.52,9.52,0,0,0-.34-1.9,3.62,3.62,0,0,0-4.27-2.88c-.54.08-1.29.21-2.25.4s-1.59.33-1.9.41a2,2,0,0,0-.11-.46q-10.16,1.83-15.22,2.65a6.68,6.68,0,0,0-5.07,3.34,43.26,43.26,0,0,0-4,7.49q-1.5,3.91-4.1,11c-1.72,4.72-2.86,7.86-3.4,9.39a5.57,5.57,0,0,1-.8,2q-6.47,5-11.64,6.34a5.32,5.32,0,0,1-3.35-.46A34.45,34.45,0,0,1,823,332.6c-1.39-.73-2.19-1.17-2.42-1.32q-3-1.5-4.38-6-2.43-8.4-2.31-11.35t3.46-11.58a33,33,0,0,0,2.53-12.91A16.39,16.39,0,0,1,823.23,279a27.1,27.1,0,0,0,3.22-6.69,55.78,55.78,0,0,1,2.42-6c.31-.69.77-1.77,1.39-3.23s1.07-2.53,1.38-3.22a17.1,17.1,0,0,0,2.08-8.07,18.39,18.39,0,0,1,.8-4.84c.16-.7.85-3.13,2.08-7.32s2.07-7.4,2.53-9.63a60.39,60.39,0,0,1,2.65-8.18,52.88,52.88,0,0,0,2.65-8.42q.36-1.73,1.33-5.76t1.44-7a21.52,21.52,0,0,0,.12-5.88,5.72,5.72,0,0,1,.92-3.92q2.41-3.57,4.49-11.06c.54-1.85,2-3.65,4.27-5.42a11.14,11.14,0,0,1,5.53-2.25,8.71,8.71,0,0,1,5.53,1.33q3.69,2.65,12.8,5.65c.38.15.94.34,1.67.57s1.28.43,1.67.58a6.18,6.18,0,0,1,3.8,3.92c0,.07.16.63.47,1.67a8.42,8.42,0,0,0,.92,2.25,25.64,25.64,0,0,1,4.72,15.21,16.09,16.09,0,0,0,1.16,4A39.49,39.49,0,0,1,897.46,221q-.12,2.19.8,16.83a15.61,15.61,0,0,0,.18,1.61,7,7,0,0,1,0,2q-.91,4,1.27,10.26a28.69,28.69,0,0,1,.81,2.77q.91,3.91,2.3,5c.93.7,2.73.93,5.42.7a23.8,23.8,0,0,0,4.84-.7,37.33,37.33,0,0,1,4.9-1.15c1.8-.31,3.34-.52,4.61-.63s3-.25,5.13-.41l4.84-.34a20.2,20.2,0,0,1,3.57-.12q3.35.35,10,1.16c4.46.53,7.84.92,10.15,1.15.76.08,1.82.11,3.16.11h3.17C965.77,259.2,967.57,260.7,968.11,263.62Zm-96.24-2.77A5.87,5.87,0,0,0,875,259.3a4.57,4.57,0,0,0,.69-3.17,78.35,78.35,0,0,0-4.49-22.59,11.11,11.11,0,0,0-1.62-2.19,1.36,1.36,0,0,0-1.32-.29,1.32,1.32,0,0,0-1.1.75q-.35,1.73-1.73,7.08c-.92,3.58-1.61,6.57-2.07,9a47,47,0,0,0-.81,7.2,23.49,23.49,0,0,0,.46,4Q867.84,261.9,871.87,260.85Z"/><path d="M1026,193q-13,2.78-17.75,10.15-3,4.72-1.61,9.1a48.56,48.56,0,0,0,3.57,8.76q.93,1.5,4,7.95l1,1.73a25.92,25.92,0,0,1,5.31,7.5,62.54,62.54,0,0,0,3.8,6.68,12.45,12.45,0,0,1,1,3.92,3.89,3.89,0,0,0,2.3,3.11q3.93,1.84,6.8,7.38c.62,1.08,1.6,2.55,2.94,4.44s2.29,3.24,2.83,4.09a104.88,104.88,0,0,1,5.88,10.72c.15.38.47,1.15,1,2.3s.94,2.1,1.33,2.83a13.79,13.79,0,0,0,1.38,2.13c.47.54.89,2,1.27,4.38.08.46.19,1.75.35,3.86a41.76,41.76,0,0,0,.57,4.9,12.05,12.05,0,0,1-.8,7.95l-1.56,3.11c-.73,1.47-1.31,2.6-1.73,3.41a25.69,25.69,0,0,0-1.32,3.11,18,18,0,0,0-.93,3.63,7,7,0,0,1-2.19,3.34c-1,1-2.49,2.42-4.49,4.27s-3.46,3.22-4.38,4.14q-2.65,2.65-11.18,4.85-7.16,1.73-10,1.49a9.13,9.13,0,0,0-7.49,2.77q-2.19,2.19-6.92,2.42c-1.77.08-4.28.21-7.55.4l-7.09.41q-4.83-7.6-7.49-11.18t-.11-7.73a23.43,23.43,0,0,1,7.49-7.83c1-.62,1.61-.89,1.84-.81.31.23.93.23,1.85,0a6.19,6.19,0,0,1,1.78-.29,3.75,3.75,0,0,0,1.68-.63c.84-.46,1.36-.73,1.55-.81a13.79,13.79,0,0,0,1.5-.86c.81-.5,1.33-.83,1.55-1a6.23,6.23,0,0,1,5.19-.69q7.26,2.42,13.83-3.46a19.81,19.81,0,0,1,2.54-2.31q5.41-3.57,3-10.72a94,94,0,0,0-5.42-13.25,10.76,10.76,0,0,0-2.31-3.35,11.35,11.35,0,0,1-2.82-2.59,33.68,33.68,0,0,1-2.48-3.74,35,35,0,0,0-2-3.12q-2.54-3.57-5.13-7.72t-5.53-9.22q-2.94-5.07-4.78-8a35.82,35.82,0,0,1-5.31-12.45,7.59,7.59,0,0,0-1.38-3q-3-3.23-5.19-10.37a9.24,9.24,0,0,1-.23-1,10.41,10.41,0,0,0-.28-1.27,2.22,2.22,0,0,0-.52-.92,10.61,10.61,0,0,1-1.73-10.26,2.65,2.65,0,0,0,.11-1.27,8.39,8.39,0,0,1-.8-2.88,6.09,6.09,0,0,1,.34-2.65,24.1,24.1,0,0,1,1-2.3c.35-.7.79-1.5,1.33-2.43s1-1.68,1.27-2.3a12.32,12.32,0,0,1,.92-1.73c.38-.61.8-1.27,1.27-2s.8-1.23,1-1.61a8.37,8.37,0,0,1,1.62-2.19q9.45-8.65,19.82-11.53,9.45-2.65,13.14-5.42a4,4,0,0,1,1.56-.8,20.19,20.19,0,0,1,2.48-.46c1.07-.16,1.69-.23,1.84-.23a15.75,15.75,0,0,1,2.71-.06,5.29,5.29,0,0,0,2.59-.29q11.07-3.69,21.44,3.23a10.35,10.35,0,0,1,5.07,10.49,6.59,6.59,0,0,1-.69,2.65,84.47,84.47,0,0,1-6.22,8.07,7,7,0,0,1-2.88,1.73c-.31.07-1.5.48-3.58,1.2a35.67,35.67,0,0,1-4.26,1.33,16.88,16.88,0,0,1-3.52.17,9.53,9.53,0,0,1-4.32-1.09A4.1,4.1,0,0,0,1026,193Z"/><path d="M1272.52,332.43c.23.39.15,1.15-.23,2.31a30.2,30.2,0,0,1-1.27,2.82,21.15,21.15,0,0,0-1.38,3.4,3.59,3.59,0,0,1-3.34,3.11,47.64,47.64,0,0,0-6.11,1.27,20.71,20.71,0,0,1-7.26.81,3.28,3.28,0,0,0-1.73.34,8.89,8.89,0,0,1-1.27.46c-.31.08-.94.27-1.9.58a15,15,0,0,1-2.25.58c-2.54.3-5.24.65-8.13,1s-6.05.77-9.5,1.16-6.15.69-8.07.92a2.12,2.12,0,0,0-1.16.23A11.65,11.65,0,0,1,1214,353a20.64,20.64,0,0,1-5.12-.06,16.51,16.51,0,0,0-5.08.11l-7.37.35L1183,351.68a.78.78,0,0,1-.57-.23,20.32,20.32,0,0,0-3.69-2.48c-1.39-.73-3-1.48-4.73-2.25s-3.11-1.38-4-1.84c-2.08-1.08-2.92-2.58-2.54-4.5a4.06,4.06,0,0,0-1.27-4.38,5.66,5.66,0,0,1-1.15-2.65c-.08-.38-.21-1.23-.4-2.53s-.37-2.27-.52-2.88a74.5,74.5,0,0,1-3.23-18.79q-.22-6.69-2-25.24a12.26,12.26,0,0,1-.06-3.06,12.91,12.91,0,0,0,0-3.05,9.23,9.23,0,0,0-.75-3c-.23-.23-.26-.42-.11-.58a10,10,0,0,0,1-2.3,5.93,5.93,0,0,0,.11-2.65c-.15-1-.25-1.69-.29-2.08a14.17,14.17,0,0,0-.75-2.53c-.46-1.31-.73-2-.8-2.19q-1.38-4.16-.12-6.57,1-2.31,0-6.11c-.84-3.23-1-5.84-.34-7.84a2.94,2.94,0,0,0,.11-1.85,30.78,30.78,0,0,1-.52-7,49.26,49.26,0,0,0-.28-7,8.17,8.17,0,0,1,.11-3.11,8.94,8.94,0,0,0,.4-3.92,36.79,36.79,0,0,0-.4-3.8c-.15-.85-.4-2.09-.75-3.75s-.59-2.9-.75-3.74a15.14,15.14,0,0,0-1.15-2.89,12.18,12.18,0,0,0-1.21-1.38,1.93,1.93,0,0,1-.63-2.19,16.21,16.21,0,0,0,.74-2.77,14.58,14.58,0,0,1,1-3.28,6,6,0,0,1,1.9-2.25c2.92-2.15,5.31-3.15,7.15-3a6.77,6.77,0,0,0,2.31-.24,11.12,11.12,0,0,1,2-.34q7.61-.34,9.56,6a14.57,14.57,0,0,1,.92,4.27,43.38,43.38,0,0,0,.29,4.84q.29,2.53.75,5.7c.31,2.12.54,3.71.69,4.79q1.39,11.06,1.73,22.13.12,3.45,1.21,12.74a83,83,0,0,1,.75,14.35,20.82,20.82,0,0,0-.17,5.07c.11,2.38.19,4.07.23,5.07s.21,2.67.52,5,.52,4,.63,5,.37,2.61.75,4.95.65,4,.81,4.9a32.64,32.64,0,0,0,3.46,10.49c.53,1,1,2.06,1.49,3.17s.94,2.39,1.44,3.81.91,2.51,1.21,3.28a26.29,26.29,0,0,0,6.11,8.42,9.44,9.44,0,0,0,8,2.76c.76-.07,1.78-.11,3-.11h3.06c.92-.08,2.26-.16,4-.23s3.07-.16,3.92-.23l8.64-.35c.62,0,1.54,0,2.77.06s2.15,0,2.77,0a9,9,0,0,0,1-.17c.57-.11.86-.09.86.06q3.57,2.19,10.14.92c.16,0,1.39.19,3.69.58a16.21,16.21,0,0,0,3.58.46,28.12,28.12,0,0,1,3.86-.75,20,20,0,0,1,3.86.46c1.92.35,3.19.56,3.8.63Q1270,327.71,1272.52,332.43Z"/><path d="M1389.86,237.11c-.08.84-.21,2.13-.4,3.86s-.31,3-.35,3.69a27,27,0,0,0,.17,3.51,33.11,33.11,0,0,1,.46,5.71c0,2,0,3.79-.17,5.24s-.31,3.4-.57,5.82-.45,4.21-.52,5.36q-.46,6.34-2.65,8.65a4.61,4.61,0,0,0-1.16,2.77q-1,8.76-6.8,21.09a138.45,138.45,0,0,1-10.14,18,16.15,16.15,0,0,1-2.25,2.65c-.88.85-2,1.79-3.28,2.82s-2.23,1.79-2.77,2.25a6.87,6.87,0,0,1-1.21.81,4.72,4.72,0,0,0-1.33,1q-3.92,5.52-12,4.61a15.24,15.24,0,0,0-4,0c-1.42.2-3,.49-4.78.87s-3.11.65-4,.81a24.68,24.68,0,0,1-7.6.46,11.83,11.83,0,0,1-7-2.88,13,13,0,0,1-6.74-2.37,52.29,52.29,0,0,1-6.22-5.18,28,28,0,0,0-5.48-4.33c-.46-.23-1.15-1.26-2.07-3.11l-.75-1.44c-.35-.65-.63-1.15-.87-1.5s-.53-.77-.92-1.27a5.36,5.36,0,0,0-1.27-1.21,10.07,10.07,0,0,0-1.49-.8c-.62-.93-1.77-2.5-3.46-4.73s-2.94-4-3.75-5.19a30.69,30.69,0,0,1-2.53-5,22.91,22.91,0,0,1-1.68-6.28,59.73,59.73,0,0,0-1.09-6.17c-.5-2.19-1.12-4.61-1.84-7.26s-1.25-4.67-1.56-6.05c-.92-4.38-1.31-7.15-1.15-8.3q.35-2.76.46-9.8a59.41,59.41,0,0,1,.92-10.83,9.25,9.25,0,0,0,.12-3.81,30.52,30.52,0,0,1-.52-5.18,28,28,0,0,1,.92-5q.87-3.51,1.09-4.9a4.34,4.34,0,0,1,.58-1.38q2.53-1.6,4.32-6.68t4-6.69a11.52,11.52,0,0,0,1.27-1.15,4.38,4.38,0,0,1,1.61-1.15q4.15-1.74,6.92-7.61a11.19,11.19,0,0,1,2.53-3.69,19,19,0,0,1,2.08-2,15.75,15.75,0,0,0,2.3-2.31q.93-1.38,2.65-4.2c1.16-1.88,2.08-3.29,2.77-4.21a14.83,14.83,0,0,1,3.23-2.94,17,17,0,0,0,3.45-3.17q3.35-4.6,11-6.57,16.37-4.38,17.06-4.49a35.58,35.58,0,0,1,6.8.34,25.78,25.78,0,0,1,18.22,9.57,13.5,13.5,0,0,0,1.84,1.73c.84.69,1.38,1.15,1.61,1.38a22.08,22.08,0,0,1,3.46,4q6.69,12.67,9.45,19.24,1.27,3,2.54,11.19.45,2.88.86,6.22t.87,7.32q.45,4,.69,6.28c0,.39,0,1,.06,1.79A9,9,0,0,0,1389.86,237.11Zm-36.65,15.44q3.68-13,3.8-18.78-.35-8.31-4.27-21.67a16.66,16.66,0,0,0-1.84-3.35,21,21,0,0,0-8.64-7.49q-4-2.07-8.47.58a12.82,12.82,0,0,0-5.83,6.45c-.23.54-.53,1.37-.92,2.48s-.69,2-.92,2.65a24.5,24.5,0,0,1-1,2.31,17.87,17.87,0,0,1-1.33,2.36,56,56,0,0,0-4,7.84q-2.25,5.19-2.94,6.45-1.5,3-2.77,10.38-1.73,10.71-3.34,14.06-3.81,8.3.58,18.67a26.84,26.84,0,0,1,2.53,8.76,16,16,0,0,0,4,9.68q6.33,7.15,7.72,8.65a6,6,0,0,0,3.51,2.07c1,.08,2.33-.46,3.87-1.61a13.06,13.06,0,0,0,3.57-3.92,114.45,114.45,0,0,0,6-11.64q3.12-6.92,4.5-10.2a82.28,82.28,0,0,0,3.05-9.22,48.58,48.58,0,0,0,1.9-11A35.7,35.7,0,0,1,1353.21,252.55Z"/><path d="M1532.9,346.49q3.57,4.5.58,9.22a.31.31,0,0,1-.12.23l-.23.24q-2.76,7.26-10.6,6.8a2.9,2.9,0,0,0-1.56.23c-.58.23-.9.5-1,.8a6.69,6.69,0,0,1-3.4,3.86,23.9,23.9,0,0,0-3.4,2.25c-.46-.31-1.11-.71-2-1.21s-1.57-1-2.19-1.38a21.35,21.35,0,0,1-1.73-1.33,9.62,9.62,0,0,1-2.76-3.92,27.17,27.17,0,0,0-4.5-6.68q-4.72-5.66-10-13.49-2.54-3.57-8.53-12.73t-9.45-14q-.81-1.14-2.53-3.74t-2.77-4q-1-1.44-2.77-3.4a28.16,28.16,0,0,0-3.45-3.34c-1.7-1.31-2.81-1-3.35.81q-2.88,9-.46,15.21a18.3,18.3,0,0,1,.35,4.84q-.24,10.85,2.3,16.6,2.09,4.72-.23,12.79-1.5,5.53-7.6,7.61-4.15,1.28-7-.92-5.76-4.26-10.25-3.69a2,2,0,0,1-2.08-1,41.05,41.05,0,0,1-4.15-5.41,45.86,45.86,0,0,1-2.76-6.34c-.62-1.62-.81-2.62-.58-3a12.68,12.68,0,0,0,1-5.76,19.08,19.08,0,0,1,.46-5.19,14.74,14.74,0,0,0-.12-7.95q-1.26-4.73.23-11.65a20.38,20.38,0,0,0,.23-6.8,14.83,14.83,0,0,1,0-3.68c.11-1.85.17-3.08.17-3.69a106.46,106.46,0,0,0-1.27-12.91,17.58,17.58,0,0,1,.12-4.38,36.92,36.92,0,0,0,.34-3.69,18.66,18.66,0,0,0-.52-3.57,19.81,19.81,0,0,1-.52-3.69c.08-2.31.22-5.55.41-9.74s.32-6.94.4-8.24V245q-2.19-8.07-2.88-27.78c0-.16-.23-2.84-.69-8.07-.39-4-.31-6.65.23-7.95a22.21,22.21,0,0,0-.23-3.69c-.31-2.77-.58-4.84-.81-6.23q-.81-4.72,3.69-7.14.81-.47,7.84-3.81,2.41-1.26,7.37.23a5,5,0,0,1,2.54,2.54,109.23,109.23,0,0,1,6.69,12.68,20.23,20.23,0,0,1,1.15,14,39.35,39.35,0,0,0-1.5,8.64,239.7,239.7,0,0,0-.23,28c.07,1.92.33,3.11.75,3.57s1.55.89,3.4,1.27c.15,0,.44,0,.86.06a5.08,5.08,0,0,1,1,.17,9.27,9.27,0,0,0,3.75,1.15,6.69,6.69,0,0,0,3.51-.75,18.83,18.83,0,0,0,2.89-1.72c.76-.58,1.72-1.41,2.88-2.48a14.91,14.91,0,0,1,5.18-3.34l5.42-3a2.87,2.87,0,0,0,.87-.58,4.54,4.54,0,0,1,1-.69,1.86,1.86,0,0,1,.8-.23,6.24,6.24,0,0,0,4.44-1,17.28,17.28,0,0,0,3.52-3.92,9.89,9.89,0,0,1,2.19-2.19c1.3-1,3.49-2.48,6.57-4.43s5.34-3.52,6.8-4.67q3.23-2.65,6.45-1.5,2.07.81,6.11-.35,5.54-1.49,11.87,2.08a2.4,2.4,0,0,1,1.39,3.11q-1.15,4.85-1.85,7.26a29.12,29.12,0,0,1-1.73,3.92,11.2,11.2,0,0,0-1.5,4.61q-.69,6.69-7.72,8.76-5,1.5-6.8,4a2.91,2.91,0,0,1-2.65,1.26,10.06,10.06,0,0,0-4.21.69,28.78,28.78,0,0,0-4.49,2.37q-2.49,1.56-3.63,2.13l-2.6,1.33-3,1.55c-.92.46-1.81.89-2.65,1.27a10.39,10.39,0,0,0-4.5,3.23,8.77,8.77,0,0,1-2.65,2.53q-3.22,1.84-2.19,5.88,1.62,5.76,3.92,8.42,8.07,8.86,16.14,16.36.91.93,4.55,4.27t5.19,4.9c1,1,2.4,2.47,4.09,4.32s3.15,3.57,4.38,5.19c.46.61,1.56,2.07,3.28,4.38s3,4,3.69,5,1.65,2.5,2.77,4.38a30.51,30.51,0,0,1,2.59,5.47A27.88,27.88,0,0,0,1532.9,346.49Z"/><path d="M1703.26,263.62a9.23,9.23,0,0,1-1,6.11,9.48,9.48,0,0,1-4.26,4.38q-1.5.57-5.71,2.48c-2.8,1.26-5,2.21-6.51,2.82q-7.38,3.1-13,2.77a18.33,18.33,0,0,0-8.88,1.61q-9.91,4.26-17.63,4.26l-2.08.35a3.16,3.16,0,0,0-2.77,3.46,57.72,57.72,0,0,0,.7,8.41c.15.62.47,2.27,1,5s.86,4.59,1.09,5.7.63,2.64,1.21,4.56a42.67,42.67,0,0,0,1.9,5.18q2.65,5.65,1.39,14.41a5,5,0,0,1-2,3.46,29.53,29.53,0,0,0-5.19,4.61,6,6,0,0,1-6.34,2c-.31-.08-.94-.29-1.9-.63a4.66,4.66,0,0,0-2.13-.41,5.74,5.74,0,0,1-4.79-.8,13.9,13.9,0,0,1-3.4-4.38q-1.15-2.31-3-7.15c-.93-2.61-.58-4.8,1-6.57q2.19-2.42.81-6a51.47,51.47,0,0,1-2.42-11.59q-.93-7.66-1.27-9.16a9.09,9.09,0,0,1-.23-1.56,8.76,8.76,0,0,0-.35-1.9,3.6,3.6,0,0,0-4.26-2.88c-.54.08-1.29.21-2.25.4s-1.59.33-1.9.41a1.69,1.69,0,0,0-.12-.46q-10.14,1.83-15.21,2.65a6.68,6.68,0,0,0-5.07,3.34,43.4,43.4,0,0,0-4,7.49q-1.49,3.91-4.09,11c-1.73,4.72-2.86,7.86-3.4,9.39a5.57,5.57,0,0,1-.8,2q-6.46,5-11.65,6.34a5.29,5.29,0,0,1-3.34-.46,35.62,35.62,0,0,1-3.23-1.56c-1.38-.73-2.19-1.17-2.42-1.32-2-1-3.45-3-4.38-6q-2.41-8.4-2.3-11.35t3.46-11.58a33.17,33.17,0,0,0,2.53-12.91,16.44,16.44,0,0,1,3.34-10.49,26.71,26.71,0,0,0,3.23-6.69,53.68,53.68,0,0,1,2.42-6c.31-.69.77-1.77,1.39-3.23s1.07-2.53,1.38-3.22a17,17,0,0,0,2.07-8.07,18.46,18.46,0,0,1,.81-4.84c.15-.7.85-3.13,2.08-7.32s2.07-7.4,2.53-9.63a59,59,0,0,1,2.65-8.18,52.88,52.88,0,0,0,2.65-8.42q.35-1.73,1.33-5.76t1.44-7a21.12,21.12,0,0,0,.11-5.88,5.78,5.78,0,0,1,.93-3.92q2.41-3.57,4.49-11.06c.54-1.85,2-3.65,4.27-5.42a11.11,11.11,0,0,1,5.53-2.25,8.73,8.73,0,0,1,5.53,1.33Q1606.9,176,1616,179c.38.15.94.34,1.67.57s1.28.43,1.67.58a6.2,6.2,0,0,1,3.8,3.92c0,.07.16.63.46,1.67a8.72,8.72,0,0,0,.93,2.25,25.64,25.64,0,0,1,4.72,15.21,16.36,16.36,0,0,0,1.15,4A39,39,0,0,1,1632.6,221c-.07,1.46.19,7.07.81,16.83,0,.23.06.77.17,1.61a6.7,6.7,0,0,1,.06,2q-.92,4,1.27,10.26a28.69,28.69,0,0,1,.81,2.77q.91,3.91,2.3,5t5.42.7a23.8,23.8,0,0,0,4.84-.7,37.33,37.33,0,0,1,4.9-1.15c1.8-.31,3.34-.52,4.61-.63s3-.25,5.13-.41l4.84-.34a20.2,20.2,0,0,1,3.57-.12q3.35.35,10,1.16c4.46.53,7.84.92,10.14,1.15.77.08,1.83.11,3.17.11h3.17C1700.92,259.2,1702.72,260.7,1703.26,263.62ZM1607,260.85a5.87,5.87,0,0,0,3.11-1.55,4.63,4.63,0,0,0,.69-3.17,78,78,0,0,0-4.5-22.59,10.5,10.5,0,0,0-1.61-2.19,1.37,1.37,0,0,0-1.33-.29,1.32,1.32,0,0,0-1.09.75q-.35,1.73-1.73,7.08c-.92,3.58-1.61,6.57-2.07,9a45.75,45.75,0,0,0-.81,7.2,23.49,23.49,0,0,0,.46,4Q1603,261.9,1607,260.85Z"/><path d="M1843,332.43c.23.39.15,1.15-.23,2.31-.16.46-.58,1.4-1.27,2.82a21.15,21.15,0,0,0-1.38,3.4,3.59,3.59,0,0,1-3.35,3.11,47.61,47.61,0,0,0-6.1,1.27,20.74,20.74,0,0,1-7.27.81,3.26,3.26,0,0,0-1.72.34,9.41,9.41,0,0,1-1.27.46c-.31.08-.94.27-1.9.58a15.58,15.58,0,0,1-2.25.58c-2.54.3-5.25.65-8.13,1s-6,.77-9.51,1.16-6.15.69-8.07.92a2.11,2.11,0,0,0-1.15.23,11.7,11.7,0,0,1-4.9,1.56,20.72,20.72,0,0,1-5.13-.06,16.45,16.45,0,0,0-5.07.11l-7.37.35-13.49-1.73a.82.82,0,0,1-.58-.23,19.65,19.65,0,0,0-3.69-2.48q-2.07-1.1-4.72-2.25c-1.77-.77-3.11-1.38-4-1.84q-3.12-1.62-2.54-4.5a4.06,4.06,0,0,0-1.27-4.38,5.66,5.66,0,0,1-1.15-2.65c-.08-.38-.21-1.23-.41-2.53s-.36-2.27-.51-2.88a74.05,74.05,0,0,1-3.23-18.79q-.24-6.69-2-25.24a12.26,12.26,0,0,1-.06-3.06,12.91,12.91,0,0,0,0-3.05,9.23,9.23,0,0,0-.75-3c-.23-.23-.27-.42-.11-.58a9.93,9.93,0,0,0,1-2.3,5.92,5.92,0,0,0,.12-2.65c-.16-1-.25-1.69-.29-2.08a15.14,15.14,0,0,0-.75-2.53c-.46-1.31-.73-2-.8-2.19q-1.4-4.16-.12-6.57,1-2.31,0-6.11c-.85-3.23-1-5.84-.35-7.84a2.93,2.93,0,0,0,.12-1.85,30.78,30.78,0,0,1-.52-7,49,49,0,0,0-.29-7,8.36,8.36,0,0,1,.12-3.11,8.94,8.94,0,0,0,.4-3.92,36.79,36.79,0,0,0-.4-3.8c-.16-.85-.41-2.09-.75-3.75s-.6-2.9-.75-3.74a15.14,15.14,0,0,0-1.15-2.89,12.18,12.18,0,0,0-1.21-1.38,2,2,0,0,1-.64-2.19,16,16,0,0,0,.75-2.77,14.58,14.58,0,0,1,1-3.28,5.92,5.92,0,0,1,1.9-2.25q4.38-3.22,7.15-3a6.74,6.74,0,0,0,2.3-.24,11.42,11.42,0,0,1,2-.34q7.6-.34,9.57,6a14.91,14.91,0,0,1,.92,4.27,43.38,43.38,0,0,0,.29,4.84q.29,2.53.75,5.7c.31,2.12.54,3.71.69,4.79q1.38,11.06,1.73,22.13.12,3.45,1.21,12.74a83,83,0,0,1,.75,14.35,20.82,20.82,0,0,0-.17,5.07c.11,2.38.19,4.07.23,5.07s.21,2.67.52,5,.51,4,.63,5,.36,2.61.75,4.95.65,4,.81,4.9a32.88,32.88,0,0,0,3.45,10.49,34.36,34.36,0,0,1,1.5,3.17q.69,1.68,1.44,3.81c.5,1.42.9,2.51,1.21,3.28a26.29,26.29,0,0,0,6.11,8.42,9.42,9.42,0,0,0,7.95,2.76c.77-.07,1.79-.11,3.06-.11h3c.93-.08,2.27-.16,4-.23s3.07-.16,3.92-.23l8.64-.35c.62,0,1.54,0,2.77.06s2.15,0,2.76,0a8.19,8.19,0,0,0,1-.17q.87-.17.87.06,3.57,2.19,10.14.92c.15,0,1.38.19,3.69.58a16.15,16.15,0,0,0,3.57.46,28.4,28.4,0,0,1,3.86-.75,20,20,0,0,1,3.87.46c1.92.35,3.18.56,3.8.63Q1840.43,327.71,1843,332.43Z"/></svg>